<svg width="683" height="476" viewBox="0 0 683 476" fill="none" xmlns="http://www.w3.org/2000/svg">
<g style="mix-blend-mode:color-dodge" opacity="0.2">
<mask id="mask0_0_6062" style="mask-type:luminance" maskUnits="userSpaceOnUse" x="0" y="-79" width="1467" height="1277">
<path d="M1466.55 -78.2996H0V1197.01H1466.55V-78.2996Z" fill="white"/>
</mask>
<g mask="url(#mask0_0_6062)">
<mask id="mask1_0_6062" style="mask-type:luminance" maskUnits="userSpaceOnUse" x="0" y="-79" width="1467" height="1277">
<path d="M732.87 657.063C724 657.063 713.77 668.563 714.49 677.755C715.34 688.744 722.52 695.562 732.97 695.315C743.37 695.059 751.91 685.9 751.56 675.381C751.24 666.107 742.1 657.113 732.94 657.063H732.88M1420.77 666.981C1400.73 799.648 1325 921.953 1205.28 1013.87C1092.23 1100.68 948.97 1153.18 796.52 1164.63V1192.98C957.67 1181.44 1109.2 1126.23 1228.62 1034.54C1362.93 931.409 1444.49 791.808 1458.27 641.458C1457.37 641.4 1456.48 641.375 1455.59 641.375C1437.93 641.375 1422.98 652.315 1420.77 666.989M7.69 640.864C21.3 791.347 102.78 931.087 237.13 1034.34C354.22 1124.32 502.15 1179.22 659.81 1192.23V1163.78C510.88 1150.86 371.18 1098.78 260.48 1013.7C140.73 921.664 65.05 799.228 45.16 666.445C42.95 651.746 27.99 640.79 10.33 640.79C9.46002 640.79 8.58001 640.815 7.70001 640.873M1121.36 662.422C1109.5 707.548 1085.92 749.419 1051.29 786.854C1030.85 808.939 1006.79 828.848 979.76 846.052C970.28 840.743 960.33 835.649 950.12 830.884C959.98 808.362 972.9 786.689 988.55 766.467C997.99 754.241 994.38 737.853 980.35 729.155L979.11 728.38L978.18 729.403C945.31 765.486 920.65 807.447 906.89 850.743C891.67 898.664 888.98 947.426 898.91 995.686L899.17 996.947L932.82 992.24L932.57 990.978C923.48 946.866 925.9 902.275 939.75 858.426C982.91 879.464 1021.54 907.683 1051.58 940.147C1053.44 942.15 1055.26 944.178 1057.06 946.223C1067.46 958.011 1087.32 961.317 1102.28 953.725L1103.6 953.057L1102.79 951.969C1095.4 942.076 1087.3 932.357 1078.7 923.082C1058.42 901.17 1034.69 881.105 1008.11 863.405C1034.53 845.797 1058.18 825.797 1078.42 803.918C1122.22 756.582 1150.56 700.624 1160.35 642.093L1160.57 640.815L1159.03 640.65C1157.49 640.469 1155.96 640.386 1154.44 640.386C1138.82 640.386 1124.75 649.487 1121.36 662.414M314.45 640.386C312.94 640.386 311.41 640.469 309.88 640.642L308.35 640.823L308.56 642.084C318.35 700.615 346.69 756.574 390.5 803.918C410.74 825.781 434.39 845.797 460.81 863.405C434.24 881.097 410.5 901.162 390.22 923.074C381.62 932.373 373.51 942.093 366.15 951.96L365.33 953.049L366.65 953.725C381.61 961.317 401.48 958.02 411.86 946.214C413.67 944.17 415.5 942.142 417.35 940.139C447.38 907.691 486.01 879.464 529.18 858.418C543.03 902.267 545.44 946.858 536.37 990.97L536.11 992.24L569.76 996.939L570.02 995.677C579.96 947.426 577.27 898.656 562.04 850.743C548.27 807.43 523.62 765.461 490.74 729.403L489.81 728.389L488.58 729.155C474.53 737.844 470.93 754.233 480.39 766.458C496.02 786.689 508.94 808.362 518.8 830.892C508.6 835.657 498.64 840.752 489.16 846.052C462.14 828.856 438.08 808.947 417.64 786.854C382.99 749.435 359.42 707.573 347.55 662.43C344.15 649.487 330.11 640.394 314.45 640.394M1195.41 663.164C1182.46 720.92 1152.64 776.277 1109.16 823.258C1095.02 838.534 1079.27 853.076 1062.36 866.48L1061.24 867.371L1084.88 887.651L1086 886.768C1104.18 872.367 1121.1 856.736 1136.29 840.315C1189.93 782.369 1223.64 713.715 1233.8 641.796L1233.97 640.518L1232.43 640.378C1231.14 640.254 1229.86 640.197 1228.59 640.197C1212.63 640.197 1198.4 649.776 1195.4 663.164M236.49 640.37L234.95 640.526L235.12 641.796C245.28 713.715 278.99 782.369 332.61 840.323C347.79 856.728 364.71 872.35 382.91 886.768L384.02 887.659L407.67 867.371L406.56 866.489C389.63 853.076 373.88 838.526 359.75 823.258C316.29 776.285 286.47 720.928 273.51 663.172C270.51 649.768 256.35 640.188 240.33 640.188C239.06 640.188 237.77 640.246 236.48 640.37M1269.19 663.518C1255.5 734.415 1220.18 802.237 1167.03 859.646C1149.94 878.121 1130.83 895.655 1110.21 911.764L1109.09 912.646L1132.57 933.066L1133.69 932.192C1155.63 915.045 1175.97 896.381 1194.18 876.728C1257.61 808.172 1296.64 726.864 1307.05 641.59L1307.2 640.312L1305.66 640.188C1304.53 640.098 1303.41 640.048 1302.29 640.048C1286.04 640.048 1271.81 649.908 1269.19 663.535M166.58 640.032C165.48 640.032 164.37 640.081 163.26 640.172L161.72 640.304L161.87 641.573C172.28 726.855 211.3 808.164 274.75 876.711C292.94 896.372 313.29 915.036 335.22 932.175L336.34 933.057L359.83 912.629L358.69 911.755C338.07 895.639 318.95 878.104 301.87 859.646C248.72 802.228 213.4 734.407 199.71 663.51C197.07 649.875 182.83 640.023 166.56 640.023M90.52 639.908L88.97 640.015L89.1 641.285C99.77 747.687 146.72 845.764 224.88 924.88C302.7 1003.62 408.45 1060.67 530.72 1089.84C554.2 1095.44 580.94 1104.19 602.25 1113.24C615.15 1118.72 623.16 1129.5 623.17 1141.39V1091.61C586.96 1075.51 550.4 1066.19 539.89 1063.7C428.22 1037.06 330.87 985.884 258.33 915.704C185.97 845.69 139.89 758.297 125.05 662.982C122.97 649.603 109.21 639.817 93.17 639.817C92.29 639.817 91.4 639.85 90.51 639.908M1343.85 662.974C1329.01 758.297 1282.93 845.698 1210.57 915.704C1138.05 985.875 1040.7 1037.05 929.03 1063.7C918.51 1066.21 881.95 1075.52 845.75 1091.61V1141.39C845.75 1129.51 853.77 1118.72 866.67 1113.24C887.96 1104.18 914.71 1095.44 938.2 1089.84C1060.47 1060.67 1166.22 1003.62 1244.03 924.88C1322.2 845.764 1369.14 747.704 1379.82 641.285L1379.95 640.007L1378.4 639.9C1377.5 639.842 1376.61 639.809 1375.72 639.809C1359.69 639.809 1345.93 649.603 1343.84 662.974M678.6 626.726C678.2 626.726 677.79 626.743 677.39 626.767C667.29 627.46 660.69 635.193 661.1 645.868C661.5 656.561 668.72 664.079 678.57 664.046C689.13 664.013 696.43 655.505 695.92 643.832C695.49 634.113 687.9 626.726 678.6 626.726ZM771.2 643.832C770.69 655.497 777.99 664.005 788.55 664.046C798.39 664.079 805.62 656.569 806.02 645.868C806.42 635.193 799.83 627.46 789.73 626.767C789.32 626.743 788.92 626.726 788.52 626.726C779.22 626.726 771.62 634.121 771.2 643.832ZM733.04 606.694C732.86 606.694 732.67 606.694 732.49 606.702C723.57 606.999 713.72 618.383 714.53 627.476C715.5 638.416 722.51 645.085 732.84 644.896C743.79 644.706 752.04 635.349 751.73 623.47C751.51 614.633 742.59 606.686 733.04 606.686M678.33 575.359C678 575.359 677.67 575.367 677.33 575.392C667.55 576.06 660.97 583.999 661.15 594.922C661.33 605.803 668.34 613.454 678.27 613.627C688.33 613.775 696.1 605.688 695.81 595.367C695.48 584.254 687.6 575.359 678.33 575.359ZM771.32 595.367C771.02 605.688 778.8 613.775 788.86 613.627C798.8 613.454 805.81 605.803 805.98 594.922C806.16 583.999 799.58 576.06 789.79 575.392C789.46 575.367 789.12 575.359 788.79 575.359C779.52 575.359 771.65 584.254 771.32 595.367ZM35.08 571.773C18.09 571.773 4.32001 583.133 4.32001 597.139V602.201H393.11V571.773H35.08ZM1063.88 571.773V602.201H1461.69V597.139C1461.69 583.133 1447.92 571.773 1430.94 571.773H1063.88ZM717.08 575.219C717.09 585.862 723.77 593.627 733.42 594.221C743.01 594.814 751.93 585.103 751.53 574.518C751.18 565.326 742.36 556.571 733.25 556.349C733.14 556.349 733.03 556.349 732.92 556.349C723.98 556.349 717.08 564.543 717.09 575.219M605.55 560.009C605.54 569.762 613.81 578.731 622.85 578.797C633.74 578.863 639.99 572.424 640.01 561.122C640.01 549.185 635.85 544.297 625.31 543.926C625.02 543.917 624.73 543.909 624.44 543.909C613.85 543.909 605.56 550.9 605.56 560.001M824.9 559.02C824.6 569.778 831.22 577.972 840.89 578.789C850.77 579.629 859.43 571.666 859.64 561.567C859.83 551.518 852.2 542.17 843.27 541.51C842.86 541.477 842.46 541.461 842.05 541.461C832.86 541.461 825.18 549.185 824.9 559.012M680.13 525.36C679.99 525.36 679.85 525.36 679.71 525.36C669.87 525.633 661.22 535.096 661.21 545.607C661.2 555.623 669.4 563.636 679.24 563.216C688.88 562.804 695.84 554.923 695.93 544.321C696.03 533.563 689.15 525.352 680.14 525.352M771.21 544.329C771.3 554.931 778.25 562.812 787.9 563.224C797.74 563.645 805.94 555.632 805.93 545.616C805.92 535.105 797.27 525.641 787.43 525.369C787.29 525.369 787.15 525.369 787.01 525.369C778 525.369 771.12 533.571 771.22 544.338M732.85 505.79C725.48 505.79 714.74 515.188 714.53 521.84C714.18 532.541 723.77 543.472 733.81 543.827C742.7 544.132 751.02 535.599 751.54 525.641C752.06 515.831 742.66 505.814 732.88 505.79H732.85ZM567.24 505.476C566.87 505.476 566.49 505.493 566.11 505.518C557.82 506.128 550.75 514.8 550.92 524.124C551.1 533.497 559.14 540.884 568.33 540.109C577.29 539.342 583.43 531.741 583.16 521.758C582.9 512.632 575.78 505.468 567.25 505.468M882.16 521.766C881.88 531.749 888.02 539.35 896.99 540.117C906.16 540.892 914.21 533.497 914.4 524.132C914.58 514.808 907.5 506.136 899.21 505.526C898.83 505.501 898.45 505.485 898.08 505.485C889.54 505.485 882.43 512.649 882.16 521.774M623.33 491.149C623.2 491.149 623.06 491.149 622.93 491.149C615.12 491.363 605.15 502.303 605.52 510.258C605.97 520.159 614.49 528.749 623.45 528.345C633.86 527.875 640.79 519.136 639.97 507.513C639.32 498.494 631.8 491.141 623.32 491.141M841.02 490.407C840.63 490.407 840.24 490.423 839.85 490.448C831.98 490.984 824.75 501.116 824.98 511.297C825.2 520.513 832.36 527.933 841.47 528.369C852.03 528.864 859.86 520.488 859.67 508.898C859.51 498.857 850.86 490.415 841.02 490.415M678.59 474.579C678.45 474.579 678.31 474.579 678.17 474.579C668.38 474.785 661.43 482.328 661.15 493.053C660.86 504.528 668.48 513.011 678.91 512.797C688.66 512.591 695.66 504.99 695.93 494.306C696.21 482.963 688.81 474.579 678.6 474.579M771.2 494.306C771.47 504.99 778.47 512.591 788.23 512.797C798.66 513.011 806.29 504.537 805.99 493.053C805.71 482.328 798.76 474.785 788.97 474.579C788.83 474.579 788.69 474.579 788.55 474.579C778.34 474.579 770.93 482.971 771.21 494.306M550.88 475.246C550.71 486.005 557.98 493.787 567.77 493.317C576.22 492.913 582.87 486.038 583.07 477.472C583.29 468.033 576.58 458.627 569.27 458.132C568.9 458.108 568.54 458.091 568.18 458.091C559.07 458.091 551.03 465.923 550.88 475.246ZM897.13 458.091C896.77 458.091 896.4 458.108 896.04 458.132C888.72 458.627 882.02 468.025 882.24 477.472C882.43 486.038 889.07 492.913 897.54 493.317C907.33 493.787 914.61 486.005 914.43 475.246C914.28 465.931 906.25 458.099 897.13 458.091ZM714.43 473.54C713.88 482.369 724.73 493.3 734.16 493.416C743.17 493.523 751.45 484.529 751.55 474.521C751.64 465.222 743.03 456.055 733.72 455.527C733.54 455.519 733.36 455.511 733.18 455.511C725.18 455.511 714.95 465.239 714.44 473.54M43.9 460.35C43.95 465.115 43.95 469.55 43.93 473.853H43.91V478.495C43.87 486.021 43.82 493.201 43.92 500.654C43.92 511.61 43.91 522.747 43.85 534.956C43.81 545.154 52.62 543.785 60.23 543.711C61.46 543.695 62.74 543.744 64.03 543.785C71.19 544.033 78.49 544.28 78.38 534.495C78.34 529.73 78.34 525.303 78.35 520.991H78.38C78.37 519.433 78.37 517.892 78.37 516.358C78.41 508.832 78.47 501.651 78.37 494.199C78.37 483.243 78.38 472.106 78.44 459.888C78.47 449.699 69.66 451.059 62.06 451.142C60.83 451.158 59.55 451.109 58.27 451.067C57.15 451.026 56.02 450.993 54.92 450.993C48.99 450.993 43.81 452.114 43.9 460.358M121.86 460.35C121.91 465.115 121.91 469.55 121.89 473.853H121.87V478.495C121.83 486.021 121.78 493.201 121.88 500.654C121.88 511.61 121.87 522.747 121.81 534.956C121.77 545.154 130.58 543.785 138.19 543.711C139.42 543.695 140.7 543.744 141.99 543.785C149.15 544.033 156.45 544.28 156.34 534.495C156.3 529.73 156.3 525.303 156.31 520.991H156.33V516.358C156.36 508.832 156.43 501.651 156.33 494.199C156.33 483.243 156.33 472.106 156.38 459.888C156.42 449.699 147.61 451.059 140.01 451.142C138.78 451.158 137.5 451.109 136.22 451.067C135.1 451.026 133.97 450.993 132.87 450.993C126.94 450.993 121.76 452.114 121.85 460.358M199.82 460.35C199.87 465.115 199.87 469.55 199.85 473.853H199.83V478.495C199.79 486.021 199.74 493.201 199.84 500.654C199.84 511.61 199.83 522.747 199.77 534.956C199.73 545.154 208.54 543.785 216.15 543.711C217.38 543.695 218.66 543.744 219.95 543.785C227.11 544.033 234.41 544.28 234.3 534.495C234.26 529.73 234.26 525.303 234.27 520.991H234.3C234.29 519.433 234.29 517.892 234.29 516.358C234.33 508.832 234.39 501.651 234.29 494.199C234.29 483.243 234.3 472.106 234.35 459.888C234.38 449.699 225.57 451.059 217.97 451.142C216.74 451.158 215.46 451.109 214.18 451.067C213.06 451.026 211.93 450.993 210.83 450.993C204.9 450.993 199.71 452.114 199.81 460.358M277.78 460.35C277.83 465.115 277.83 469.55 277.81 473.853H277.79V478.495C277.75 486.021 277.7 493.201 277.8 500.654C277.8 511.61 277.79 522.747 277.73 534.956C277.69 545.154 286.5 543.785 294.11 543.711C295.34 543.695 296.62 543.744 297.91 543.785C305.07 544.033 312.37 544.28 312.26 534.495C312.22 529.73 312.22 525.303 312.23 520.991H312.26C312.25 519.433 312.25 517.892 312.25 516.358C312.29 508.832 312.35 501.651 312.25 494.199C312.25 483.243 312.26 472.106 312.32 459.888C312.35 449.699 303.54 451.059 295.94 451.142C294.71 451.158 293.43 451.109 292.15 451.067C291.03 451.026 289.9 450.993 288.8 450.993C282.87 450.993 277.68 452.114 277.78 460.358M355.73 460.35C355.78 465.115 355.78 469.55 355.76 473.853H355.74V478.495C355.7 486.021 355.65 493.201 355.75 500.654C355.75 511.61 355.74 522.747 355.68 534.956C355.64 545.154 364.45 543.785 372.06 543.711C373.29 543.695 374.57 543.744 375.86 543.785C383.02 544.033 390.32 544.28 390.21 534.495C390.17 529.73 390.17 525.303 390.18 520.991H390.21C390.2 519.433 390.2 517.892 390.2 516.358C390.23 508.832 390.3 501.651 390.2 494.199C390.2 483.243 390.21 472.106 390.25 459.888C390.29 449.699 381.48 451.059 373.88 451.142C372.65 451.158 371.37 451.109 370.09 451.067C368.97 451.026 367.84 450.993 366.74 450.993C360.81 450.993 355.62 452.114 355.72 460.358M1063.9 460.35C1063.96 465.115 1063.96 469.55 1063.93 473.853H1063.91V478.495C1063.87 486.021 1063.82 493.201 1063.92 500.654C1063.92 511.61 1063.91 522.747 1063.86 534.956C1063.82 545.154 1072.63 543.785 1080.24 543.711C1081.47 543.695 1082.75 543.744 1084.04 543.785C1091.2 544.033 1098.5 544.28 1098.39 534.495C1098.35 529.73 1098.35 525.303 1098.36 520.991H1098.39C1098.38 519.433 1098.38 517.892 1098.38 516.358C1098.41 508.832 1098.48 501.651 1098.38 494.199C1098.38 483.243 1098.39 472.106 1098.43 459.888C1098.47 449.699 1089.66 451.059 1082.06 451.142C1080.83 451.158 1079.55 451.109 1078.27 451.067C1077.15 451.026 1076.02 450.993 1074.92 450.993C1068.99 450.993 1063.81 452.114 1063.9 460.358M1141.86 460.35C1141.92 465.115 1141.92 469.55 1141.89 473.853H1141.87V478.495C1141.83 486.021 1141.78 493.201 1141.87 500.654C1141.87 511.61 1141.87 522.747 1141.81 534.956C1141.77 545.154 1150.58 543.785 1158.19 543.711C1159.42 543.695 1160.7 543.744 1161.99 543.785C1169.15 544.033 1176.45 544.28 1176.34 534.495C1176.3 529.73 1176.3 525.303 1176.31 520.991H1176.34C1176.33 519.433 1176.33 517.892 1176.33 516.358C1176.36 508.832 1176.43 501.651 1176.33 494.199C1176.33 483.243 1176.34 472.106 1176.38 459.888C1176.42 449.699 1167.61 451.059 1160.01 451.142C1158.78 451.158 1157.5 451.109 1156.22 451.067C1155.1 451.026 1153.97 450.993 1152.87 450.993C1146.94 450.993 1141.76 452.114 1141.85 460.358M1219.82 460.35C1219.88 465.115 1219.88 469.55 1219.85 473.853H1219.83V478.495C1219.79 486.021 1219.74 493.201 1219.83 500.654C1219.83 511.61 1219.83 522.747 1219.77 534.956C1219.73 545.154 1228.54 543.785 1236.15 543.711C1237.38 543.695 1238.66 543.744 1239.95 543.785C1247.11 544.033 1254.41 544.28 1254.3 534.495C1254.26 529.73 1254.26 525.303 1254.27 520.991H1254.29V516.358C1254.32 508.832 1254.39 501.651 1254.29 494.199C1254.29 483.243 1254.29 472.106 1254.34 459.888C1254.38 449.699 1245.57 451.059 1237.97 451.142C1236.74 451.158 1235.46 451.109 1234.18 451.067C1233.06 451.026 1231.93 450.993 1230.83 450.993C1224.9 450.993 1219.72 452.114 1219.81 460.358M1297.77 460.35C1297.82 465.115 1297.82 469.55 1297.8 473.853H1297.78V478.495C1297.74 486.021 1297.69 493.201 1297.79 500.654C1297.79 511.61 1297.78 522.747 1297.72 534.956C1297.68 545.154 1306.49 543.785 1314.1 543.711C1315.33 543.695 1316.61 543.744 1317.9 543.785C1325.06 544.033 1332.36 544.28 1332.25 534.495C1332.21 529.73 1332.21 525.303 1332.22 520.991H1332.25C1332.24 519.433 1332.24 517.892 1332.24 516.358C1332.28 508.832 1332.34 501.651 1332.24 494.199C1332.24 483.243 1332.25 472.106 1332.31 459.888C1332.34 449.699 1323.53 451.059 1315.93 451.142C1314.7 451.158 1313.42 451.109 1312.14 451.067C1311.02 451.026 1309.89 450.993 1308.79 450.993C1302.86 450.993 1297.68 452.114 1297.77 460.358M1375.73 460.35C1375.78 465.115 1375.78 469.55 1375.76 473.853H1375.74V478.495C1375.7 486.021 1375.65 493.201 1375.75 500.654C1375.75 511.61 1375.74 522.747 1375.68 534.956C1375.64 545.154 1384.45 543.785 1392.06 543.711C1393.29 543.695 1394.57 543.744 1395.86 543.785C1403.02 544.033 1410.32 544.28 1410.21 534.495C1410.17 529.73 1410.17 525.303 1410.18 520.991H1410.21C1410.2 519.433 1410.2 517.892 1410.2 516.358C1410.24 508.832 1410.3 501.651 1410.2 494.199C1410.2 483.243 1410.21 472.106 1410.26 459.888C1410.29 449.699 1401.48 451.059 1393.88 451.142C1392.65 451.158 1391.37 451.109 1390.09 451.067C1388.97 451.026 1387.84 450.993 1386.74 450.993C1380.81 450.993 1375.63 452.114 1375.72 460.358M621.35 440.705C611.89 441.546 604.15 452.172 605.4 462.625C606.49 471.784 614.3 478.305 623.7 477.95C635.24 477.489 641.01 470.333 640.02 457.695C639.25 448.001 631.67 440.647 622.78 440.647C622.31 440.647 621.83 440.672 621.35 440.713M841.99 440.631C841.58 440.631 841.16 440.647 840.75 440.688C830.66 441.571 824.23 449.567 824.87 460.432C825.5 471.034 833.45 478.569 843.32 477.95C853.23 477.324 860.41 468.668 859.48 458.495C858.55 448.561 850.66 440.631 841.98 440.631M661.14 444.126C661.51 454.81 668.63 462.32 678.44 462.37C689.4 462.427 696.38 453.689 695.95 440.458C695.57 428.446 691.47 423.987 680.78 423.921C680.72 423.921 680.66 423.921 680.59 423.921C668.3 423.921 660.71 431.793 661.15 444.126M786.35 423.921C775.66 423.987 771.56 428.446 771.18 440.458C770.74 453.689 777.72 462.419 788.69 462.37C798.5 462.312 805.62 454.81 805.99 444.126C806.42 431.793 798.84 423.921 786.54 423.921C786.48 423.921 786.41 423.921 786.35 423.921ZM748.61 812.08C760.37 763.227 788.25 721.472 830.58 686.156C855.86 665.052 881.15 643.947 906.81 623.165C927.6 606.339 945.2 587.543 960.89 567.396C963.53 563.991 963.98 558.41 971.49 558.789C971.49 563.373 972.07 567.898 971.41 572.301C963.09 627.872 935.97 676.123 887.97 716.023C851.62 746.236 814.96 776.203 778.43 806.268C769.15 813.902 759.84 821.511 748.5 830.818C745.48 822.088 747.4 817.108 748.61 812.071M972.42 447.374C970.32 462.065 969.07 476.895 965.83 491.404C957.52 528.683 935.09 559.918 903.1 586.694C872.4 612.39 841.77 638.152 810.54 663.403C773.1 693.691 744.8 728.636 727.58 769.566C726.58 771.941 724.65 774.051 723.16 776.285C708.79 819.046 708.66 862.787 709.02 906.694C709.62 979.594 709.17 1100.12 709.16 1173.02C709.16 1176.24 709.01 1179.47 709.23 1182.69C709.53 1187.07 707.3 1193.07 712.86 1195.11C721.95 1198.46 732.69 1196.73 742.15 1194.86C742.26 1187.82 742.53 1180.78 742.53 1173.74C742.53 1105.35 743.15 989.346 742.17 920.964C741.72 889.901 754.42 864.741 781.24 843.208C824.96 808.09 868.06 772.444 910.93 736.632C969.99 687.293 1002.01 627.954 1006.05 558.542C1006.27 554.725 1007.44 550.941 1008.17 547.141C1006.25 531.766 1005.1 516.391 1007.97 500.992C1006.09 497.117 1006.19 493.234 1007.76 489.319C1005.93 480.283 1005.61 471.248 1007.85 462.221C1006.49 459.624 1006.49 457.019 1007.89 454.431C1004.16 443.838 1009.33 432.601 1004.66 422.074C983.81 423.055 974.9 430.103 972.41 447.358M448.93 421.25C443.13 423.64 445.56 429.263 445.54 433.467C445.4 474.167 444.57 514.883 445.75 555.558C447.32 609.983 468.8 659.24 506.72 703.715C510.28 707.911 513.63 712.239 517.07 716.518C524.2 721.381 530.82 726.6 534.98 733.574C552.44 745.049 568.19 757.951 582.2 772.295C588.44 774.9 593.1 778.783 596.13 783.985C603.92 787.876 610.32 792.896 614.84 799.467C631.53 808.502 642.17 823.349 660.58 832.846C661.57 828.386 661.75 825.22 662.98 822.384C669.57 807.216 665.2 795.18 649.16 785.675C644.95 783.193 642.25 778.956 638.88 775.527C631.95 772.856 627.13 768.371 623.36 763.013C618.82 761.611 615.71 758.981 613.72 755.379C586.77 735.651 560.53 715.273 538.66 691.588C502.22 652.134 483.25 607.32 479.7 557.338C482.28 558.237 484.41 558.402 484.99 559.275C512.88 601.442 556.92 632.093 596.64 665.843C611.28 678.291 628.04 689.165 639.43 704.094C646.7 708.958 652.53 714.72 655.93 722L656.25 722.297C667.09 730.433 671.08 742.667 680.72 752.296C690.31 743.689 690.11 732.296 698.9 724.943C686.2 703.088 667.43 684.903 647.09 667.797C616.38 641.961 585.6 616.166 554.13 590.948C510.03 555.607 485.12 513.217 481.49 462.452C481.03 456.005 479.83 449.608 478.92 443.186C477.86 435.676 473.15 429.831 465.99 425.446C462.18 423.113 457.93 420.359 453.31 420.359C451.88 420.359 450.42 420.623 448.92 421.241M551.06 428.471C550.19 437.91 556.86 445.948 566.04 446.517C575.21 447.102 582.59 440.111 583.17 430.268C583.77 420.186 577.8 412.767 568.43 411.951C568.05 411.918 567.67 411.901 567.29 411.901C559.24 411.901 551.9 419.246 551.06 428.471ZM898.02 411.901C897.64 411.901 897.26 411.918 896.88 411.951C887.51 412.767 881.54 420.186 882.14 430.268C882.73 440.111 890.1 447.102 899.27 446.517C908.45 445.94 915.13 437.91 914.25 428.471C913.41 419.246 906.07 411.901 898.02 411.901ZM732.92 405.051C732.85 405.051 732.77 405.051 732.7 405.051C723.78 405.199 716.79 413.946 717.07 424.605C717.33 434.291 724.16 442.519 732.12 442.716C740.56 442.931 751.92 431.324 751.53 422.874C751.11 413.987 741.74 405.051 732.93 405.051M842.38 390.253C842.13 390.253 841.88 390.253 841.63 390.269C831.62 390.673 824.69 398.398 824.9 408.942C825.12 419.724 832 427.268 841.86 427.523C852.35 427.787 859.97 419.329 859.66 407.763C859.39 397.697 851.98 390.253 842.38 390.253ZM605.52 409.065C605.71 418.76 614.03 427.573 622.98 427.573C633.78 427.573 639.92 421.208 640.02 409.939C640.11 398.744 633.86 390.105 625.3 389.643C625.13 389.635 624.96 389.626 624.79 389.626C616.45 389.626 605.35 400.706 605.52 409.065ZM661.26 391.935C661.65 403.558 671.46 412.627 682.8 411.86C691.23 411.291 696.11 404.111 695.9 392.545C695.7 381.638 688.75 373.963 678.84 373.757C678.7 373.757 678.57 373.757 678.43 373.757C668.58 373.757 660.91 381.82 661.26 391.943M788.69 373.749C788.56 373.749 788.42 373.749 788.28 373.749C778.37 373.955 771.42 381.63 771.22 392.536C771.01 404.103 775.89 411.291 784.32 411.852C795.66 412.618 805.46 403.55 805.85 391.926C806.2 381.803 798.53 373.741 788.68 373.741M733.17 354.277C722.77 354.73 713.74 364.252 714.43 374.037C715.04 382.545 725.26 392.454 733.21 392.256C743.13 392.001 752.3 381.877 751.5 372.042C750.71 362.191 742.75 354.261 733.82 354.261C733.6 354.261 733.39 354.261 733.17 354.277ZM678.5 323.313H678.4C667.75 323.388 660.51 331.953 661.14 343.791C661.65 353.791 668.52 361.284 677.15 361.21C688.09 361.111 696.19 352.661 695.9 341.656C695.61 330.972 688.33 323.305 678.51 323.305M788.62 323.313C778.8 323.313 771.52 330.98 771.23 341.664C770.94 352.661 779.04 361.119 789.98 361.218C798.61 361.293 805.48 353.799 805.99 343.799C806.61 331.961 799.37 323.388 788.73 323.322H788.63M733.85 303.874C733.63 303.874 733.42 303.874 733.2 303.891C722.75 304.344 713.74 313.784 714.42 323.594C715.01 332.019 725.3 342.01 733.2 341.821C743.05 341.59 752.3 331.417 751.53 321.64C750.76 311.813 742.78 303.874 733.85 303.874ZM588.96 126.229C586.65 126.229 584.31 126.336 581.94 126.559C568.04 127.861 556.54 132.898 547.89 141.925C539.84 150.317 539.75 158.949 547.62 164.389C556.44 170.482 564.49 168.421 572.89 162.947C587.43 153.475 595.99 153.161 604.93 161.207C611.76 167.349 613.99 174.505 610.7 182.715C605.89 194.669 593.76 202.707 577.32 203.465C564.83 204.042 552.26 203.803 539.72 203.646C532.66 203.556 528.24 205.048 526.45 211.569C516.75 247.075 496.14 277.544 461.43 301.319C462.25 302.44 463.06 303.569 463.87 304.699C468.51 304.93 473.44 304.435 477.76 305.548C502.14 311.772 515.22 300.841 526.44 285.276C536.49 271.361 546.3 257.437 552.15 241.939C554.85 234.791 559.53 231.477 569.06 231.865C576.07 232.137 583.1 232.096 590.14 232.046C598 231.997 605.87 231.939 613.7 232.343C629.27 233.134 642.54 238.336 650.65 250.059C657.33 259.679 655.26 269.506 645.55 276.25C636.05 282.861 628.41 282.836 616.79 274.403C609.02 268.772 601.76 264.799 591.88 270.083C583.65 274.494 582.31 282.284 587.87 290.569C598.67 306.653 626.43 314.27 649.75 307.032C671.13 300.396 685.12 288.013 688.39 268.97C692.21 246.621 684.13 226.605 660.59 215.278C643.28 206.952 640.93 199.83 645.05 184.125C653.28 152.79 625.11 126.237 588.99 126.229M819.99 185.658C820.69 188.799 821.87 191.973 823.53 194.859C827.93 202.484 824.31 205.979 815.66 209.607C788.69 220.901 775.03 239.515 776.75 264.601C779.18 299.909 828.24 321.714 862.94 303.273C868.94 300.082 874.16 296.158 877.87 291.121C882.83 284.378 883.44 277.676 876.01 271.773C868.43 265.772 860.33 266.563 852.84 271.715C847.49 275.409 843.34 280.413 835.51 280.899C820.71 281.806 808.13 267.923 812.56 255.525C817.02 243.052 832.79 233.217 852.17 232.219C860.55 231.791 868.95 231.881 877.37 231.972C883.86 232.046 890.34 232.112 896.82 231.947C905.98 231.708 910.91 234.355 913.84 241.881C921.55 261.699 933.97 279.572 949 296.323C956.09 304.221 963.28 309.134 976.33 306.455C984.98 304.691 994.3 305.16 1003.46 304.616C1002.51 298.244 997.27 295.927 993.5 292.96C967.27 272.26 950.85 247.05 941.77 218.296C937.17 203.712 937.03 203.729 918.4 203.613C915.01 203.597 911.61 203.638 908.22 203.688C901.42 203.778 894.61 203.877 887.86 203.424C871.28 202.319 859.59 194.166 855.35 181.866C852.1 172.394 856.05 163.359 865.77 158.355C874.98 153.598 883.28 154.25 891.06 160.886C894.24 163.598 898.24 165.956 902.38 167.53C908.94 170.02 914.88 167.638 919.31 163.681C925.33 158.281 925.29 151.694 920.99 145.717C912.9 134.464 900.36 128.265 884.74 126.575C882.14 126.295 879.57 126.163 877.05 126.163C840.77 126.163 812.86 154.126 820 185.667M1206.23 175.444C1191.84 175.172 1180.17 164.629 1180.79 152.436C1181.4 140.21 1193.72 130.59 1208.21 131.035C1222.42 131.472 1234.08 141.966 1233.86 154.068C1233.63 165.527 1221.01 175.444 1206.8 175.444C1206.61 175.444 1206.42 175.444 1206.23 175.444ZM1148.22 152.527C1147.85 179.962 1173.61 201.981 1206.44 202.245C1239.63 202.517 1265.83 180.992 1266.21 153.17C1266.57 127.202 1240.45 104.927 1208.66 104.078C1208.02 104.061 1207.38 104.053 1206.75 104.053C1174.7 104.053 1148.61 125.495 1148.23 152.518M232.05 153.178C231.82 141.463 244.28 131.06 258.61 130.994C272.93 130.928 285.32 141.109 285.41 153.013C285.5 164.983 273.34 175.148 258.86 175.197H258.76C244.54 175.197 232.28 165.098 232.05 153.178ZM257.08 104.053C225.64 104.803 199.2 127.193 199.19 153.062C199.18 180.086 226.5 202.377 259.25 202.055C292.6 201.734 318.72 179.583 317.94 152.296C317.17 125.536 290.62 104.028 258.78 104.028C258.21 104.028 257.65 104.037 257.08 104.053ZM721.96 47.715C716.68 49.1 718.38 54.409 718.37 58.1599C718.26 79.3712 718.32 100.591 718.34 121.81V143.434C710.79 145.42 710.22 140.103 707.58 137.473C700.68 130.598 694.65 123.096 687.35 116.542C676.21 106.526 662.03 104.119 646.5 108.068C641.14 109.436 638.64 112.61 643.71 116.74C646.59 119.09 649.78 121.2 652.72 123.508C695.55 157.234 717.33 198.519 718.1 247.339C718.18 252.359 718.21 257.388 718.31 262.408C718.58 276.134 719.45 276.381 735.12 276.604C745.06 276.744 748.07 273.562 748.04 265.78C747.94 248.484 748.28 231.065 752.3 214.083C760.28 180.316 779.6 151.282 809.26 127.004C814.95 122.346 820.75 117.779 828.11 111.86C805.09 103.221 791.69 104.886 777.08 118.257C768.53 126.072 761.13 134.745 752.64 143.607C745.71 139.328 748.03 133.5 747.99 128.463C747.78 105.578 748.02 82.6935 747.79 59.8087C747.75 55.6291 750.21 49.9161 743.9 47.8387C740.53 46.7258 736.88 46.2312 733.22 46.2312C729.38 46.2312 725.53 46.7753 721.97 47.7068M1392.85 36.9157C1384.65 36.9157 1376.68 37.9132 1369.68 40.0566C1343.17 48.1685 1328.96 67.2446 1332.6 90.2118C1334.88 104.597 1343.3 115.784 1359.61 121.975C1370.13 125.965 1379.88 123.813 1384.45 117.153C1389.55 109.733 1386.33 103.806 1379.47 98.2412C1366.08 87.4007 1364.28 82.0422 1370.58 74.2353C1376.77 66.5439 1391.1 63.5926 1404.41 67.2693C1420.71 71.7622 1429.83 81.6218 1430.95 95.9495C1432.65 118.249 1420.13 135.94 1398.03 142.387C1373.24 149.625 1344.6 142.725 1328.86 125.017C1323.86 119.387 1319.81 112.849 1317.08 106.229C1293.24 48.2921 1213.15 35.7286 1164.37 51.3506C1150.4 55.8187 1136.91 60.8474 1126.04 69.5858C1114.7 78.7282 1112.53 88.967 1119.31 99.313C1125.21 108.307 1129.83 109.041 1137.78 101.143C1160.48 78.5798 1189.74 71.1522 1223.84 75.7192C1252.04 79.4949 1273.12 91.4731 1283.08 114.49C1288.41 126.748 1295.34 138.331 1306.02 147.943C1325.6 165.56 1350.18 174.068 1367.02 173.787C1412.47 173.532 1439.03 162.774 1454.48 138.166C1470.95 111.876 1470.86 84.7297 1452.32 58.9184C1442.61 45.3985 1416.72 36.9322 1392.84 36.9322M72.54 36.3881C36.35 36.3881 3.95002 59.2151 0.580017 90.6157C0.230017 93.8143 0.02 97.0212 0 100.22V101.201C0.04 106.708 0.660002 112.198 2.19 117.598C10.16 145.618 29.55 165.098 64.76 171.405C100.99 177.876 133.08 171.199 159.15 148.636C169.55 139.642 177.43 129.032 181.54 117.161C198.28 68.7532 283.65 61.0865 323.17 95.9165C327.75 99.9477 329.48 110.195 340.01 105.644C349.16 101.695 350.28 93.3115 349.68 85.1996C349.05 76.6425 342.86 71.078 335.2 66.2306C312.62 51.9688 286.95 45.448 258.69 45.3903C209.09 44.7803 163.84 68.5636 149.18 105.586C141.13 125.924 125.26 140.054 98.44 144.167C59.68 150.111 27.93 124.234 34.98 92.2975C39.06 73.7819 61.77 61.5151 81.99 66.8901C100.39 71.7787 104.21 85.2326 90.2 95.9907C87.93 97.7384 84.87 98.9337 83.04 100.904C78.29 105.99 78.11 111.844 81.53 117.317C85.23 123.236 92.08 124.877 99.6 123.55C115.6 120.706 125.53 112.05 130.78 99.7251C141.93 73.4769 124.44 46.1487 91.98 38.6057C85.47 37.0888 78.94 36.3716 72.52 36.3716M456.78 41.2602C456.38 109.75 456.89 108.488 456.68 176.978C456.55 225.171 422.89 262.763 369.11 275.722C355.36 279.044 341.3 279.3 327.18 279.308C304.63 279.324 282.08 279.308 259.53 279.308C223.29 279.291 187.04 279.275 150.8 279.357C120.6 279.423 102.04 289.596 94.43 309.604C85.43 333.272 101.91 357.55 131 363.84C139.52 365.678 148.09 365.439 156.69 365.439C209.22 365.464 261.74 365.456 314.27 365.456V365.555C367.58 365.555 420.88 365.414 474.2 365.596C498.73 365.686 519.63 371.424 536.88 382.463L584.83 382.24C568.32 364.359 545.4 350.304 518.04 342.991C501.53 338.589 484.71 336.363 467.23 336.388C366.89 336.578 266.54 336.479 166.18 336.429C158.35 336.429 150.47 336.586 142.7 335.943C133.81 335.226 128.23 330.667 127.63 323.338C126.93 314.921 132.92 309.983 142.59 308.689C147.39 308.029 152.35 308.079 157.27 308.128C158.63 308.145 159.99 308.153 161.35 308.153C180.62 308.145 199.89 308.169 219.16 308.202C258.69 308.268 298.22 308.334 337.75 308.021C411.7 307.444 471.73 266.926 487.87 207.595C490.31 198.684 490.73 189.706 490.72 180.638C490.65 114.721 490.64 118.579 490.72 52.6613C490.72 46.8742 490.49 40.9057 492.1 35.3493C495.16 24.7808 505.36 18.4001 517.36 18.2435C529.6 18.0868 539.02 23.9399 543.29 34.5827C544.27 37.0146 544.84 39.6032 545.16 42.167C546.24 51.4 552.33 56.404 563.55 56.132C573.62 55.8847 579.56 48.7125 579.58 38.0039C579.59 16.1496 558.93 -4.57535 532.45 -9.22485C527.34 -10.1234 522.33 -10.5521 517.47 -10.5521C483.46 -10.5521 456.96 10.6015 456.78 41.2354M948.67 -10.7335C918.01 -10.7335 888.83 8.45809 886.14 35.6956C884.99 47.3523 890.88 55.1097 901.72 56.2474C911.7 57.2861 918.57 52.1172 921.7 41.087C922.23 39.2157 921.89 37.1712 922.5 35.3246C926.03 24.6407 935.44 18.2765 947.56 18.2352C960.54 18.194 971.4 25.3496 973.78 36.6519C975.1 42.9501 974.77 49.5287 974.77 55.9671C974.86 119.931 974.57 114.144 974.93 178.099C975.36 254.305 1041.79 308.326 1134.34 308.227C1190.78 308.169 1247.21 308.095 1303.65 308.054C1309.92 308.054 1316.23 307.939 1322.43 308.507C1332.25 309.406 1338.69 314.056 1338.66 322.349C1338.62 330.502 1332.78 335.588 1322.62 336.24C1315.61 336.693 1308.53 336.602 1301.49 336.602C1198.8 336.545 1096.12 336.231 993.42 336.47C948.53 336.569 908.72 353.667 883.05 379.989H933.34C947.93 372.026 965.3 367.014 984.52 366.115C1014.19 364.73 1044 365.085 1073.74 365.357C1093.21 365.546 1112.69 365.398 1132.16 365.25C1167.45 364.977 1202.73 364.714 1238 366.428C1250.17 364.944 1262.39 365.101 1274.6 365.266C1281.17 365.348 1287.75 365.439 1294.31 365.266C1298.32 365.167 1302.34 365.208 1306.36 365.266C1310.97 365.315 1315.58 365.373 1320.18 365.2C1351.98 364.005 1373.27 347.319 1373.89 323.363C1374.52 298.5 1353.04 280.207 1320.19 279.803C1261.42 279.061 1202.61 279.522 1143.82 279.151C1129.77 279.061 1115.15 279.448 1101.75 276.579C1053.55 266.242 1023.29 240.603 1012.26 200.283C1009.51 190.193 1009.28 179.814 1009.3 169.435C1009.42 104.836 1009.09 109.972 1009.5 45.3738C1009.63 23.5525 1001.2 6.14983 977.25 -4.69901C968.09 -8.84563 958.31 -10.7417 948.66 -10.7417M944.44 -73.3863C901.43 -73.3863 865.12 -57.8797 838.18 -28.235C807.71 5.2595 802.2 42.5297 819.77 81.8031C824.89 93.262 834.59 97.4746 844.67 94.1606C854.55 90.9125 857.16 83.4519 852.59 71.1521C851.68 68.6872 850.11 66.3625 849.42 63.8729C841.91 36.7343 845.39 11.2445 866.84 -11.327C893.8 -39.7104 937.19 -51.0456 978.24 -40.5595C1019.96 -29.9003 1049.44 0.651215 1050.24 37.2537C1051.34 86.9638 1050.56 66.9478 1050.61 116.666C1050.63 137.96 1050.49 159.245 1050.83 180.539C1051.4 216.845 1086.79 246.325 1130.83 246.687C1192.57 247.182 1254.33 246.918 1316.07 246.877C1341.31 246.852 1363.89 252.681 1383.06 266.514C1411.8 287.238 1422.09 317.839 1410.26 347.336C1398.82 375.901 1366.61 397.639 1329.58 398.505C1284.99 399.544 1240.34 398.315 1195.71 398.076C1157.14 398.258 1118.58 398.464 1080.01 398.67C1069.96 398.728 1061.86 405.446 1061.86 413.731C1061.86 422.016 1069.96 428.727 1080 428.793C1102.89 428.925 1125.79 429.081 1148.69 429.205C1204.28 428.908 1259.89 428.628 1315.48 428.306C1342.67 428.133 1368.13 423.039 1391.22 410.665C1438.9 385.117 1460.09 339.216 1444.69 294.204C1429.54 249.935 1381.14 219.483 1324.5 219.153C1287.36 218.93 1250.22 218.93 1213.09 218.939C1196.95 218.939 1180.81 218.939 1164.68 218.93C1157.63 218.922 1150.56 218.749 1143.53 219.021C1105.94 220.456 1085.76 205.707 1085.61 171.66C1085.39 123.228 1085.68 144.555 1085.71 96.1226C1085.73 77.4009 1086.25 58.6546 1085.5 39.9494C1083.13 -20.8156 1032.45 -67.0138 959.13 -72.7763C954.16 -73.1637 949.27 -73.3616 944.46 -73.3616H944.43M381.18 38.2512C380.67 100.904 381.11 93.8143 381.14 156.467C381.14 162.279 381.2 168.099 381.06 173.911C380.21 205.435 364.17 218.757 326.17 218.856C265.04 219.021 203.91 219.12 142.77 218.815C106.09 218.634 75.71 229.812 50.66 251.452C-0.389996 295.515 5.32003 368.654 67.13 406.386C92.72 422.016 121.66 428.389 153.07 428.397C204.8 428.413 256.53 428.405 308.26 428.405V428.57H374.8C384.66 428.57 392.68 422.016 392.75 413.888C392.84 405.677 384.78 398.991 374.82 398.983C335.02 398.967 295.23 398.958 255.43 398.917C243.81 398.917 232.18 398.983 220.55 399.057C192.98 399.23 165.41 399.404 137.89 398.497C99.92 397.227 72.6 380.567 58.52 351.738C44.5 323.041 49.96 295.837 75.61 272.466C95.81 254.065 121.81 246.811 151.44 246.885C213.36 247.001 275.27 247.207 337.19 246.86C374.3 246.646 404.16 227.116 413.06 198.502C415.41 190.885 415.06 183.128 415.06 175.37C415.06 106.897 414.48 108.175 415.37 39.7021C416 -8.88685 463.8 -45.7696 521.93 -44.2775C585.06 -42.6699 631.63 6.58676 618.09 57.5746C616.42 63.8564 613.65 69.9321 611.88 76.2056C609.71 83.8971 611.82 90.4261 621.26 93.971C629.99 97.2438 638.34 94.1688 644.2 85.282C649.51 77.2608 652.29 68.3657 653.91 59.4789C667.2 -13.7919 602.18 -68.5225 527.67 -73.2462C524.33 -73.4605 521.01 -73.5594 517.7 -73.5594C445.28 -73.5594 381.7 -23.7174 381.2 38.2594M276.61 -76.5684C269.18 -72.0838 275.28 -66.0081 276.72 -60.6496C280.59 -46.2642 288.8 -32.8021 290.8 -18.0457C288.81 -17.4686 287.32 -16.603 285.92 -16.6855C281.24 -16.9658 276.32 -16.6525 271.41 -16.3475C261.67 -15.7374 252.01 -15.1274 244.52 -19.1009C233.83 -24.7809 234.66 -38.5892 230.91 -48.9352C226.09 -62.2737 217.53 -72.2404 199.84 -74.6806C188.99 -76.1727 185.62 -73.2297 188.53 -64.178C192.71 -51.1033 197.3 -38.1111 202.51 -25.2755C206.1 -16.4547 202.98 -11.8216 192.04 -10.4037C190.5 -10.2059 189.03 -9.74421 187.53 -9.38972C167.99 -4.60832 167.89 -4.57534 162.14 -20.2633C159.21 -28.268 157.36 -36.553 151.32 -43.585C147.74 -47.7563 144.75 -51.8782 137.3 -52.3564C130.56 -52.8015 123.27 -57.3933 117.44 -52.3152C112.23 -47.7893 118.12 -42.5463 119.52 -37.905C123.09 -26.0339 128.1 -14.4761 132.04 -2.67927C133.99 3.14909 137.21 8.36741 130.1 14.8553C121.51 22.6869 134.43 26.6109 138.8 31.7056C142.38 35.8852 146.74 39.2157 154.39 35.135C210.08 5.45736 269.87 8.30146 332.39 20.6259C335.2 14.3854 337.75 9.05164 340 3.62723C341.19 0.717171 344.19 -3.09971 340.35 -5.22661C324.69 -13.9238 326.95 -28.9935 320.86 -41.0376C317.86 -46.9484 316.17 -53.3209 313.65 -59.4131C310.7 -66.4945 304.68 -71.5479 296.59 -74.6064C292.32 -76.2222 287.56 -78.2831 282.99 -78.2831C280.8 -78.2831 278.65 -77.805 276.61 -76.5849M1182.86 -78.2996C1178.22 -78.2666 1173.4 -76.3541 1168.98 -74.6888C1158.99 -70.9379 1153.78 -63.7575 1150.64 -55.522C1146.67 -45.0689 1143.17 -34.5003 1139.3 -24.0225C1137.06 -17.9798 1136.59 -11.1786 1128.69 -7.51838C1123.57 -5.16065 1124.29 -1.41798 1125.41 2.59676C1130.11 19.5542 1133.04 20.7166 1153.99 17.0316C1208.44 7.45235 1261.4 8.62298 1310.07 34.2859C1316.75 37.806 1322.1 38.2676 1325.84 32.9339C1329.95 27.1056 1345.02 24.1213 1335.87 14.6409C1329.61 8.15307 1332.03 2.76163 1334.14 -3.29755C1338.9 -16.9245 1344.18 -30.4361 1348.64 -44.1208C1351.26 -52.1585 1348.09 -55.1263 1338.63 -54.2112C1323.99 -52.818 1314.67 -45.885 1309.17 -34.7476C1304.49 -25.2838 1304.13 -14.4926 1296.47 -6.00977C1271.51 -10.2471 1262.6 -22.0879 1269.73 -41.5323C1272.66 -49.5617 1275.16 -57.6984 1278.16 -65.7031C1280.98 -73.1802 1276.22 -75.167 1268.67 -74.6558C1253.99 -73.6748 1243.63 -67.2364 1238.58 -56.0166C1234.26 -46.3631 1231.13 -36.3387 1227.69 -26.4296C1225.53 -20.2468 1221.95 -16.3969 1213.01 -16.7844C1201.37 -17.2955 1189.66 -16.9163 1177.96 -16.9163C1173.75 -22.4149 1177.24 -27.1633 1178.82 -31.8046C1182.21 -41.7219 1186.54 -51.4496 1189.47 -61.4493C1190.83 -66.107 1196.67 -71.6963 1190.95 -75.81C1188.48 -77.5824 1185.83 -78.2666 1183.1 -78.2831H1182.87L1182.86 -78.2996Z" fill="white"/>
</mask>
<g mask="url(#mask1_0_6062)">
<path d="M1470.87 -78.6007H-0.504028V1198.16H1470.87V-78.6007Z" fill="url(#paint0_radial_0_6062)"/>
</g>
</g>
</g>
<defs>
<radialGradient id="paint0_radial_0_6062" cx="0" cy="0" r="1" gradientUnits="userSpaceOnUse" gradientTransform="translate(717.569 286.571) rotate(180) scale(753.66 621.302)">
<stop offset="0.0913462" stop-color="#C4BEB6" stop-opacity="0"/>
<stop offset="0.485577" stop-color="#C4BEB6"/>
<stop offset="1" stop-color="#C4BEB6" stop-opacity="0"/>
</radialGradient>
</defs>
</svg>
